<svg version="1.1" id="Layer_1" xmlns="http://www.w3.org/2000/svg" xmlns:xlink="http://www.w3.org/1999/xlink" x="0px" y="0px"
	 width="100%" viewBox="0 0 134 128" enable-background="new 0 0 134 128" xml:space="preserve">

<path fill="#4C9AE9" opacity="1.000000" stroke="none" 
	d="
M90.022842,54.004257 
	C94.016251,56.033096 97.724548,57.844833 101.258644,59.949139 
	C104.573326,61.922794 104.674339,64.746689 101.369942,66.669411 
	C87.634155,74.661812 73.833580,82.544395 59.988773,90.346603 
	C57.113930,91.966721 56.438030,89.531151 56.328205,87.491295 
	C56.104862,83.342903 56.179417,79.177734 56.157734,75.019348 
	C56.097008,63.375156 55.974445,51.730164 56.086761,40.087521 
	C56.101830,38.525318 57.329308,36.974808 57.995346,35.418880 
	C59.206654,36.211769 60.410122,37.017052 61.633625,37.790653 
	C62.048172,38.052765 62.527313,38.210655 62.953327,38.456997 
	C71.858154,43.606094 80.759583,48.761066 90.022842,54.004257 
z"/>
<path fill="#4C9AE9" opacity="1.000000" stroke="none" 
	d="
M47.211010,62.006065 
	C47.171871,70.005363 47.289612,77.504730 47.222805,85.002457 
	C47.211205,86.304497 46.765514,88.275017 45.897228,88.719467 
	C44.908802,89.225403 42.948551,88.766304 41.881023,88.037621 
	C32.677029,81.755119 23.528923,75.387138 14.475118,68.890022 
	C10.966516,66.372208 10.939529,63.980030 14.297917,61.257938 
	C23.453222,53.837231 32.684029,46.508499 41.966003,39.246964 
	C42.957321,38.471432 44.809425,37.723900 45.670326,38.152439 
	C46.549232,38.589939 47.069641,40.483475 47.104557,41.757179 
	C47.284924,48.336868 47.259186,54.922215 47.211010,62.006065 
z"/>
<path fill="#4C9AE9" opacity="1.000000" stroke="none" 
	d="
M107.790924,76.978943 
	C106.553658,83.357704 105.150124,89.615028 103.573532,95.828453 
	C102.254234,101.027832 101.065895,106.307495 99.106018,111.269791 
	C98.484566,112.843254 94.999504,114.877625 93.788910,114.375740 
	C83.709114,110.196960 73.854866,105.474152 63.076168,100.522194 
	C64.943245,98.741341 66.011787,97.268517 67.449226,96.422462 
	C79.552963,89.298485 91.696663,82.240517 103.920662,75.325890 
	C105.059189,74.681862 106.835007,75.164482 108.314926,75.123978 
	C108.059853,75.695480 107.804771,76.266983 107.790924,76.978943 
z"/>
<path fill="#4C9AE9" opacity="1.000000" stroke="none" 
	d="
M109.751457,52.045670 
	C108.576294,52.527828 106.756828,53.567669 105.844040,53.039776 
	C92.904541,45.556484 80.073685,37.884346 67.268860,30.171049 
	C66.244164,29.553801 64.982224,28.302114 64.975563,27.337357 
	C64.969894,26.515034 66.475800,25.315996 67.549721,24.910425 
	C76.186676,21.648668 84.821960,18.354231 93.611481,15.551958 
	C95.110229,15.074128 98.579849,16.458324 99.031776,17.730726 
	C101.611122,24.993000 103.518814,32.491901 105.724098,39.889721 
	C106.921288,43.905777 108.256058,47.880814 109.751457,52.045670 
z"/>
<path fill="#4C9AE9" opacity="1.000000" stroke="none" 
	d="
M29.221426,103.811615 
	C23.706482,94.571037 18.397789,85.635880 13.089095,76.700722 
	C13.362855,76.412704 13.636616,76.124687 13.910376,75.836670 
	C17.151484,78.483902 20.407719,81.113007 23.620493,83.794189 
	C24.237030,84.308708 24.588142,85.152779 25.222116,85.633095 
	C30.655497,89.749672 36.365364,93.549667 41.426918,98.076736 
	C42.796436,99.301636 44.663181,101.809280 42.058990,105.244446 
	C35.021576,114.527428 35.303406,114.794540 29.221426,103.811615 
z"/>
<path fill="#4E9BEA" opacity="1.000000" stroke="none" 
	d="
M68.822357,111.355324 
	C74.935318,113.627357 80.732666,115.661995 86.530006,117.696632 
	C86.424561,118.021904 86.319115,118.347183 86.213669,118.672455 
	C73.868813,118.672455 61.522907,118.760544 49.179817,118.613037 
	C45.928799,118.574181 45.366520,116.731804 47.005577,113.918732 
	C51.188450,106.739769 54.818356,105.416946 62.636108,108.528999 
	C64.621849,109.319466 66.551384,110.251137 68.822357,111.355324 
z"/>
<path fill="#4E9BE9" opacity="1.000000" stroke="none" 
	d="
M21.692970,39.680481 
	C25.420141,33.372849 28.963394,27.381355 32.434906,21.348579 
	C33.863228,18.866453 36.300922,16.057323 38.412277,18.545322 
	C40.100163,20.534306 45.540234,22.869030 41.433537,27.257607 
	C36.489670,32.540817 31.441366,37.732525 26.287096,42.810387 
	C22.968307,46.079975 19.377537,49.073490 15.908669,52.190739 
	C15.581304,51.900047 15.253938,51.609352 14.926572,51.318661 
	C17.111099,47.539104 19.295626,43.759548 21.692970,39.680481 
z"/>
<path fill="#519DEA" opacity="1.000000" stroke="none" 
	d="
M82.239990,11.982800 
	C83.304947,12.014023 83.967972,12.044690 84.631004,12.075357 
	C84.694878,12.300134 84.758743,12.524909 84.822617,12.749684 
	C80.721535,13.825434 76.623566,14.913252 72.518539,15.973739 
	C67.857750,17.177799 63.244282,18.756611 58.505547,19.393389 
	C55.794273,19.757723 52.745975,18.913277 50.111874,17.918257 
	C49.046280,17.515736 48.680244,15.261276 47.995869,13.849560 
	C49.299812,13.289235 50.588448,12.289046 51.910286,12.243060 
	C58.389149,12.017658 64.876762,12.035593 71.361443,11.989305 
	C74.853493,11.964377 78.345840,11.983174 82.239990,11.982800 
z"/>
<path fill="#4F9CEA" opacity="1.000000" stroke="none" 
	d="
M124.151505,69.061584 
	C123.367767,72.268463 122.481972,75.486450 121.034859,78.428314 
	C118.528320,83.523933 115.687981,88.456238 112.930580,93.425369 
	C112.766594,93.720886 112.097809,93.736290 110.386978,94.311012 
	C112.418617,87.867744 113.998627,82.183533 116.040642,76.670441 
	C117.031212,73.996078 118.733276,71.527046 120.457504,69.222664 
	C120.900871,68.630119 122.648392,69.013405 124.151505,69.061584 
z"/>
<path fill="#4D9BE9" opacity="1.000000" stroke="none" 
	d="
M113.053886,39.957550 
	C114.566559,41.568752 116.429291,42.976864 117.509575,44.838917 
	C119.115814,47.607544 120.064262,50.748940 121.493019,53.632416 
	C122.494263,55.653095 123.829666,57.508190 125.203651,59.742680 
	C120.715179,60.534847 119.131348,58.209602 118.055344,55.456493 
	C116.197510,50.702934 114.517151,45.880020 112.799774,40.617363 
	C112.837219,40.148525 113.053886,39.957550 113.053886,39.957550 
z"/>
<path fill="#4D9BE9" opacity="1.000000" stroke="none" 
	d="
M112.729675,40.244904 
	C111.860558,38.730846 111.098976,37.120411 110.161263,35.137527 
	C114.064751,34.861435 113.300316,37.370781 113.143753,39.671417 
	C113.053886,39.957550 112.837219,40.148525 112.729675,40.244904 
z"/>
</svg>